<svg viewBox="495.6 332.6 684.6 299.59999999999997" version="1.1" xmlns:xlink="http://www.w3.org/1999/xlink" xmlns="http://www.w3.org/2000/svg" style="max-height: 500px" width="684.6" height="299.59999999999997"><g style="mix-blend-mode: normal" text-anchor="none" font-size="none" font-weight="none" font-family="none" stroke-dashoffset="0" stroke-dasharray="" stroke-miterlimit="10" stroke-linejoin="miter" stroke-linecap="butt" stroke-width="0" stroke="#000000" fill-rule="nonzero" fill="#ffffff" id="document"><rect id="Shape 1 1" height="500" width="700" transform="scale(1,1.4)" y="93.57143" x="490"/></g><g style="mix-blend-mode: normal" text-anchor="none" font-size="none" font-weight="none" font-family="none" stroke-dashoffset="0" stroke-dasharray="" stroke-miterlimit="10" stroke-linejoin="miter" stroke-linecap="butt" stroke-width="1" stroke="none" fill-rule="nonzero" fill="#000000"><g id="stage"><g id="layer1 1"><path id="CompoundPath 1" d="M624.55491,371.44359v-0.06579v0c-0.04386,-10.61409 -3.07019,-18.91457 -9.07899,-24.90144v0v0c-0.76755,-0.85527 -1.55703,-1.65571 -2.36843,-2.40133v0v0c-5.81143,-5.17546 -12.85094,-7.7632 -21.11853,-7.7632v0h-85.98727l35.4607,45.75681h-35.4607v85.82279h51.15157v-39.24362h30.46068v0c6.16231,0.32895 12.30269,-0.8772 18.42114,-3.61844v0v0c12.34655,-5.52634 18.51983,-16.01982 18.51983,-31.48042v0v-22.03958v0c0,0 0,-0.02193 0,-0.06579zM759.58847,467.89143h-66.21743v0c-18.94746,0 -33.32253,-4.83555 -43.12521,-14.50665v0v0c-4.23248,-4.16669 -7.46714,-9.07899 -9.704,-14.73692v0v0c-2.10527,-5.26318 -3.15791,-10.14259 -3.15791,-14.63823v0v-87.6978h66.31612v0c18.88167,0 33.23481,4.83555 43.05942,14.50665v0v0c4.23248,4.16669 7.46714,9.07899 9.704,14.73692v0v0c2.08334,5.26318 3.12502,10.14259 3.12502,14.63823v0h0.06579zM892.9115,467.82564h-80.29645v0c-0.81141,0.04386 -1.63378,0.06579 -2.46712,0.06579v0v0c-5.85529,0 -11.72155,-1.37062 -17.59877,-4.11186v0v0c-13.35533,-6.25003 -20.03299,-18.26763 -20.03299,-36.05281v0v-91.48072h37.07255l31.08568,42.13837v-42.13837l25.52644,0.06579v0c6.57898,0 12.13822,1.30483 16.67771,3.91449v0v0c6.68863,3.85967 10.03294,10.1097 10.03294,18.75009v0zM993.47121,467.89143h-47.63182v0c-17.58781,0 -29.52866,-6.67766 -35.82255,-20.03299v0v0c-2.82896,-5.96494 -4.24344,-11.89699 -4.24344,-17.79614v0v0c0,-0.74562 0.02193,-1.48027 0.06579,-2.20396v0v-53.19105v0c0,-13.48691 4.04607,-23.68433 12.13822,-30.59226v0v0c6.07459,-5.17546 12.86191,-7.7632 20.36194,-7.7632v0h87.82938l-68.48718,91.54651h68.48718v0c0,16.40359 -5.14257,27.97163 -15.42771,34.70412v0v0c-5.43862,3.50879 -11.19523,5.28511 -17.26982,5.32897zM1038.99775,445.16106v-108.84922h24.67117v0c6.46933,0 12.0176,1.32676 16.64482,3.98028v0v0c6.77635,3.85967 10.16452,10.1097 10.16452,18.75009v0v22.76327h32.10542v-45.49365l24.67117,0.06579v0c6.38161,0 11.88602,1.30483 16.51324,3.91449v0v0c6.82021,3.90353 10.23031,10.15356 10.23031,18.75009v0v108.84922h-24.67117v0c-6.33775,-0.26316 -11.73251,-1.63378 -16.18429,-4.11186v0v0c-7.03951,-3.85967 -10.55926,-10.06584 -10.55926,-18.61851v0v-6.74345v0c0,-4.25441 -1.5351,-7.17109 -4.60529,-8.75004v0v0c-0.13158,-0.08772 -0.24123,-0.13158 -0.32895,-0.13158v0v0c-0.26316,-0.13158 -0.47149,-0.24123 -0.625,-0.32895v0v0c-0.08772,-0.04386 -0.26316,-0.10965 -0.52632,-0.19737v0v0c-0.35088,-0.13158 -0.66886,-0.20833 -0.95395,-0.23026v0v0c-0.2193,-0.04386 -0.35088,-0.06579 -0.39474,-0.06579v0v0c-0.67983,-0.17544 -1.30483,-0.26316 -1.87501,-0.26316v0h-22.79617v39.44099h-24.67117v0c-6.38161,-0.26316 -11.7983,-1.63378 -16.25008,-4.11186v0v0c-7.03951,-3.85967 -10.55926,-10.06584 -10.55926,-18.61851zM513.45238,494.17446h28.22382v0c4.7588,0.04386 9.32022,1.0965 13.68428,3.15791v0v0c8.00443,3.77195 12.94963,10.21935 14.8356,19.3422v0v0.06579l11.38164,54.8029l15.78955,-77.3688h51.84236l-20.69089,105.29657v0c-2.25878,10.78953 -8.73908,18.39921 -19.44089,22.82906v0v0c-5.52634,2.25878 -10.97593,3.4101 -16.34877,3.45396v0h-53.25684zM850.06589,625.75406h-66.25033v0c-18.92553,0 -33.28964,-4.83555 -43.09232,-14.50665v0v0c-4.25441,-4.16669 -7.48907,-9.07899 -9.704,-14.73692v0v0c-2.10527,-5.26318 -3.15791,-10.14259 -3.15791,-14.63823v0v-87.6978h66.31612v0c18.88167,0 33.22385,4.83555 43.02653,14.50665v0v0c4.23248,4.16669 7.46714,9.07899 9.704,14.73692v0v0c2.10527,5.26318 3.15791,10.14259 3.15791,14.63823v0h0.06579zM980.09943,516.27983l0.13158,69.44113h59.67135l-27.56593,40.03309h-56.84239v0c-6.0088,0 -11.38164,-1.30483 -16.1185,-3.91449v0v0c-7.08337,-3.94739 -10.62505,-10.19742 -10.62505,-18.75009v0v-108.91501l24.67117,0.06579v0c6.46933,0 11.97374,1.2829 16.51324,3.8487v0v0c6.60091,3.72809 9.98908,9.79172 10.16452,18.19088zM1070.82357,603.25395v-59.21082h-19.14483v0c-5.96494,0 -11.23909,-1.45834 -15.82245,-4.37502v0v0c-6.33775,-4.03511 -9.50663,-10.16452 -9.50663,-18.38825v0v-27.03961l113.71767,-0.06579v0c6.42547,0 11.90795,1.32676 16.44745,3.98028v0v0c6.68863,3.90353 10.03294,10.17549 10.03294,18.81588v0v27.0725h-44.34233v81.71093h-24.67117v0c-6.29389,-0.26316 -11.66672,-1.61185 -16.1185,-4.04607v0v0c-7.01758,-3.85967 -10.5483,-10.01101 -10.59216,-18.45404z"/></g></g></g></svg>